<?xml version="1.0" encoding="UTF-8" standalone="no"?>
<!-- Created with Inkscape (http://www.inkscape.org/) -->

<svg
   xmlns:dc="http://purl.org/dc/elements/1.1/"
   xmlns:cc="http://creativecommons.org/ns#"
   xmlns:rdf="http://www.w3.org/1999/02/22-rdf-syntax-ns#"
   xmlns:svg="http://www.w3.org/2000/svg"
   xmlns="http://www.w3.org/2000/svg"
   xmlns:xlink="http://www.w3.org/1999/xlink"
   xmlns:sodipodi="http://sodipodi.sourceforge.net/DTD/sodipodi-0.dtd"
   xmlns:inkscape="http://www.inkscape.org/namespaces/inkscape"
   version="1.1"
   width="48"
   height="48"
   id="svg5987"
   sodipodi:docname="debian_package.svg"
   inkscape:version="0.92.4 (5da689c313, 2019-01-14)">
  <metadata
     id="metadata54">
    <rdf:RDF>
      <cc:Work
         rdf:about="">
        <dc:format>image/svg+xml</dc:format>
        <dc:type
           rdf:resource="http://purl.org/dc/dcmitype/StillImage" />
      </cc:Work>
    </rdf:RDF>
  </metadata>
  <sodipodi:namedview
     pagecolor="#ffffff"
     bordercolor="#666666"
     borderopacity="1"
     objecttolerance="10"
     gridtolerance="10"
     guidetolerance="10"
     inkscape:pageopacity="0"
     inkscape:pageshadow="2"
     inkscape:window-width="1280"
     inkscape:window-height="747"
     id="namedview52"
     showgrid="false"
     inkscape:zoom="4.9166667"
     inkscape:cx="-24.813936"
     inkscape:cy="26.07112"
     inkscape:window-x="-8"
     inkscape:window-y="-8"
     inkscape:window-maximized="1"
     inkscape:current-layer="layer1" />
  <defs
     id="defs5989">
    <radialGradient
       cx="5"
       cy="41.5"
       r="5"
       fx="5"
       fy="41.5"
       id="radialGradient3314"
       xlink:href="#linearGradient3681"
       gradientUnits="userSpaceOnUse"
       gradientTransform="matrix(0.5938225,0,0,1.5366531,41.140892,-103.93618)" />
    <linearGradient
       id="linearGradient3703">
      <stop
         id="stop3705"
         style="stop-color:black;stop-opacity:0"
         offset="0" />
      <stop
         id="stop3711"
         style="stop-color:black;stop-opacity:1"
         offset="0.5" />
      <stop
         id="stop3707"
         style="stop-color:black;stop-opacity:0"
         offset="1" />
    </linearGradient>
    <linearGradient
       x1="17.554192"
       y1="46.000275"
       x2="17.554192"
       y2="34.999718"
       id="linearGradient3312"
       xlink:href="#linearGradient3703"
       gradientUnits="userSpaceOnUse"
       gradientTransform="matrix(1.7570316,0,0,1.3969574,-17.394014,-16.411698)" />
    <linearGradient
       id="linearGradient3681">
      <stop
         id="stop3683"
         style="stop-color:black;stop-opacity:1"
         offset="0" />
      <stop
         id="stop3685"
         style="stop-color:black;stop-opacity:0"
         offset="1" />
    </linearGradient>
    <radialGradient
       cx="5"
       cy="41.5"
       r="5"
       fx="5"
       fy="41.5"
       id="radialGradient3310"
       xlink:href="#linearGradient3681"
       gradientUnits="userSpaceOnUse"
       gradientTransform="matrix(0.5938225,0,0,1.5366531,-6.6594735,-103.93618)" />
    <linearGradient
       id="linearGradient3295">
      <stop
         id="stop3297"
         style="stop-color:#c9af8b;stop-opacity:1"
         offset="0" />
      <stop
         id="stop3299"
         style="stop-color:#ad8757;stop-opacity:1"
         offset="0.23942046" />
      <stop
         id="stop3301"
         style="stop-color:#c2a57f;stop-opacity:1"
         offset="0.27582464" />
      <stop
         id="stop3303"
         style="stop-color:#9d7d53;stop-opacity:1"
         offset="1" />
    </linearGradient>
    <linearGradient
       x1="15.464298"
       y1="7.9756851"
       x2="15.464298"
       y2="45.04248"
       id="linearGradient3293"
       xlink:href="#linearGradient3295"
       gradientUnits="userSpaceOnUse"
       gradientTransform="matrix(1.0434783,0,0,1.0744085,-1.0434783,-3.5716073)" />
    <linearGradient
       id="linearGradient3199">
      <stop
         id="stop3201"
         style="stop-color:#dac197;stop-opacity:1"
         offset="0" />
      <stop
         id="stop3203"
         style="stop-color:#c1a581;stop-opacity:1"
         offset="0.23942046" />
      <stop
         id="stop3205"
         style="stop-color:#dbc298;stop-opacity:1"
         offset="0.27582464" />
      <stop
         id="stop3207"
         style="stop-color:#a68b60;stop-opacity:1"
         offset="1" />
    </linearGradient>
    <linearGradient
       x1="24.822832"
       y1="15.377745"
       x2="24.996943"
       y2="37.27668"
       id="linearGradient3197"
       xlink:href="#linearGradient3199"
       gradientUnits="userSpaceOnUse"
       gradientTransform="matrix(1.3379741,0,0,1.6731354,-7.3775917,-20.000125)" />
    <linearGradient
       id="linearGradient4559">
      <stop
         id="stop4561"
         style="stop-color:white;stop-opacity:0"
         offset="0" />
      <stop
         id="stop4563"
         style="stop-color:white;stop-opacity:0"
         offset="1" />
    </linearGradient>
    <linearGradient
       x1="23.451576"
       y1="30.554907"
       x2="43.00663"
       y2="45.934479"
       id="linearGradient2659"
       xlink:href="#linearGradient4559"
       gradientUnits="userSpaceOnUse"
       gradientTransform="matrix(1.3379741,0,0,1.2620939,-7.3775917,-9.2693758)" />
    <linearGradient
       id="linearGradient3827">
      <stop
         id="stop3829"
         style="stop-color:white;stop-opacity:1"
         offset="0" />
      <stop
         id="stop4295"
         style="stop-color:white;stop-opacity:1"
         offset="0.3021296" />
      <stop
         id="stop4293"
         style="stop-color:white;stop-opacity:0.6901961"
         offset="0.34361121" />
      <stop
         id="stop3832"
         style="stop-color:white;stop-opacity:0"
         offset="1" />
    </linearGradient>
    <linearGradient
       x1="26"
       y1="22"
       x2="26"
       y2="8"
       id="linearGradient3834"
       xlink:href="#linearGradient3827"
       gradientUnits="userSpaceOnUse"
       gradientTransform="matrix(1.0434783,0,0,1.0744085,-1.0434783,-3.5716073)" />
    <linearGradient
       id="linearGradient3275">
      <stop
         id="stop3277"
         style="stop-color:white;stop-opacity:0"
         offset="0" />
      <stop
         id="stop3283"
         style="stop-color:white;stop-opacity:1"
         offset="0.245" />
      <stop
         id="stop3285"
         style="stop-color:white;stop-opacity:1"
         offset="0.77350003" />
      <stop
         id="stop3279"
         style="stop-color:white;stop-opacity:0"
         offset="1" />
    </linearGradient>
    <linearGradient
       x1="44.994774"
       y1="17.5"
       x2="3.0052247"
       y2="17.5"
       id="linearGradient3281"
       xlink:href="#linearGradient3275"
       gradientUnits="userSpaceOnUse"
       spreadMethod="reflect"
       gradientTransform="matrix(1.0434783,0,0,1.0744085,-1.0434783,-3.5716073)" />
  </defs>
  <g
     id="g66">
    <g
       id="layer1">
      <g
         style="display:inline;opacity:0.4"
         id="g3305"
         transform="matrix(1.0358216,0,0,1.0487811,-0.7563234,-2.1824365)">
        <rect
           style="fill:url(#radialGradient3310);fill-opacity:1;stroke:none"
           id="rect2484"
           transform="scale(-1)"
           y="-47.848343"
           x="-3.6903627"
           height="15.366531"
           width="2.9601951" />
        <rect
           style="fill:url(#linearGradient3312);fill-opacity:1;stroke:none"
           id="rect2486"
           y="32.481812"
           x="3.6903627"
           height="15.366531"
           width="40.41172" />
        <rect
           style="display:inline;fill:url(#radialGradient3314);fill-opacity:1;stroke:none"
           id="rect3444"
           transform="scale(1,-1)"
           y="-47.848343"
           x="44.110001"
           height="15.366531"
           width="2.9601951" />
      </g>
      <path
         style="display:block;overflow:visible;visibility:visible;fill:url(#linearGradient3197);fill-opacity:1;fill-rule:nonzero;stroke:url(#linearGradient3293);stroke-width:1.05269003;stroke-linecap:round;stroke-linejoin:miter;stroke-miterlimit:4;stroke-dasharray:none;stroke-dashoffset:0;stroke-opacity:1;marker:none"
         id="path2488"
         d="M 8.3590176,5.5608648 H 39.139251 c 1.796854,0 2.605484,-0.3078722 3.12162,1.0744085 l 3.132244,8.5952677 V 42.81481 c 0,1.668883 0.107405,1.413895 -1.689457,1.413895 H 4.2963432 c -1.7968617,0 -1.6894576,0.254988 -1.6894576,-1.413895 V 15.230541 L 5.7391306,6.6352733 C 6.2408679,5.2809145 6.5621558,5.5608648 8.3590176,5.5608648 Z"
         inkscape:connector-curvature="0" />
      <path
         style="display:block;overflow:visible;visibility:visible;opacity:0.50549454;fill:none;stroke:url(#linearGradient2659);stroke-width:0.78577423;stroke-linecap:butt;stroke-linejoin:miter;stroke-miterlimit:4;stroke-dasharray:none;stroke-dashoffset:0;stroke-opacity:1;marker:none"
         id="path2490"
         d="m 9.337246,6.6491825 h 28.855172 c 1.684479,0 2.727005,0.5979471 3.432543,2.2412466 L 44.05516,15.787831 V 40.65454 c 0,1.569363 -0.854358,2.359493 -2.538841,2.359493 H 6.3164536 c -1.6844801,0 -2.3715925,-0.86901 -2.3715925,-2.438374 V 15.787831 L 6.2966638,8.7425483 C 6.7670244,7.4689531 7.6527621,6.6491825 9.337246,6.6491825 Z"
         inkscape:connector-curvature="0" />
      <path
         style="display:inline;opacity:0.4;fill:none;stroke:url(#linearGradient3281);stroke-width:1.0588305px;stroke-linecap:square;stroke-linejoin:miter;stroke-opacity:1"
         id="path3273"
         d="M 2.6141477,15.230541 H 45.385853"
         inkscape:connector-curvature="0" />
      <path
         style="font-style:normal;font-weight:normal;font-size:18.03777695px;font-family:OpenLogos;opacity:0.6;fill:#340000;fill-opacity:1;stroke:#3d0000;stroke-width:0.42581934px;stroke-linecap:butt;stroke-linejoin:miter;stroke-opacity:1"
         id="text2244"
         d="m 25.386629,17.251167 c -0.05454,0.06856 -1.732393,0.152145 -0.646436,0.05163 0.215486,-0.01721 0.43095,-0.03442 0.646436,-0.05163 z m -1.598192,0.172932 c -0.593285,0.305449 -0.424628,0.275523 0.135255,0.27598 0.171721,0.0504 1.044339,0.03923 0.773242,-0.05855 -0.937587,-0.142589 1.006603,-0.07179 -0.07612,0.103588 -0.999224,0.251294 0.225636,0.146083 0.554289,0.07556 0.718432,0.05608 0.705634,-0.281982 1.500164,0.112032 0.605404,0.148009 1.174868,0.484446 1.745699,0.672655 0.756111,-0.360737 1.161192,0.394537 1.725855,0.669085 -0.94842,-0.904595 0.642713,0.210036 0.926897,0.48395 1.119184,0.950127 2.059348,2.17942 2.458515,3.614498 -0.406933,-0.763049 -0.168853,0.491875 -0.09239,0.721997 0.141244,0.295292 0.56484,2.220541 0.207173,0.941793 -0.18856,-0.48302 -0.512626,-1.903092 -0.866645,-1.858318 -0.69625,-0.15993 -0.318293,0.85409 0,0.726304 0.0725,0.352481 0.57483,1.86131 -0.03865,0.93813 0.410971,0.676315 0.149224,1.078301 0.395264,1.746597 0.277533,0.110637 -0.342252,1.105456 -0.137478,1.608252 -0.111548,-0.380383 -0.287034,-0.884278 -0.215076,-0.176039 0.123567,0.34429 -0.317707,1.598294 -0.0599,0.582437 0.05761,-1.451216 -0.204188,0.545272 -0.520101,0.938949 -0.285649,0.28317 -0.118045,1.207479 -0.493799,0.505003 -0.285568,0.210919 -0.523882,1.838246 -0.378055,0.830066 -0.718552,0.638464 -1.496985,1.422718 -2.45799,1.793082 -1.434488,0.65924 -3.147858,0.508654 -4.570601,0.02269 0.741284,0.913974 2.055545,0.788662 3.076079,0.847357 -1.711809,0.51478 -3.532786,-0.401469 -4.763963,-1.573114 -0.334138,-0.265103 -0.883485,-1.214129 -0.206745,-0.458805 0.248031,0.400837 1.530468,1.497505 0.605756,0.544732 -0.758885,-1.01391 0.729847,0.707021 1.237306,0.743588 -0.27172,-0.792169 -1.48877,-1.191897 -1.885015,-2.052936 -0.703644,-0.983731 -0.836243,-2.280054 -0.622885,-3.444071 0.323364,-0.571973 0.386778,-1.312653 0.948377,-1.740106 0.985217,-1.832701 3.777713,-2.091614 5.150876,-0.558789 0.779839,0.820233 -0.752111,-0.539322 -1.169092,-0.421983 -1.970452,-0.502384 -4.127417,1.011956 -4.326687,3.054777 -0.06601,0.332003 -0.07431,0.927381 0.100038,0.62607 -0.06496,2.473199 2.590162,4.755754 5.001849,3.991234 0.627648,-0.06253 1.217929,-0.451943 1.715396,-0.92249 -0.608662,0.741316 0.620723,-0.154625 0.866607,-0.450143 0.870878,-0.261113 0.396629,-1.268554 1.128841,-1.540167 0.197691,-0.248804 0.624525,-2.037452 0.171858,-1.072169 0.294974,-0.89027 0.146552,-1.831606 0.171839,-2.749588 -0.198178,-0.781292 -0.390976,-1.821532 -0.896305,-2.582327 -0.992416,-1.674108 -2.664458,-3.025088 -4.645739,-3.198869 -0.773127,-0.222769 -2.47083,0.11471 -2.590688,0.152336 1.062189,-0.345758 -0.931269,-0.04589 -1.095515,0.268021 -0.420554,0.25785 -1.551713,0.659311 -0.498366,0.415036 -0.575823,0.297055 -1.921729,0.441875 -2.039422,1.046615 0.717885,-0.116527 -0.689016,0.353459 -0.885887,0.530579 -0.879542,0.685788 -1.701931,1.483661 -2.298869,2.434785 0.428358,0.08779 -0.212559,0.696458 -0.260888,1.012422 -0.412069,0.65201 -0.498914,1.410942 -0.529626,2.169494 -0.106027,1.127583 -0.343111,2.391688 0.181947,3.434637 -0.117632,0.394438 -0.01168,0.747623 0.213321,1.078842 -0.362777,0.547162 0.660194,1.172464 1.099828,1.48721 0.343069,0.450936 0.437369,1.087218 -0.08593,0.484192 0.420297,0.757479 0.454132,1.426221 0.962347,1.919527 -0.455087,0.04942 0.651122,1.211428 0.84206,1.504493 0.220015,-0.255534 0.38151,1.242315 1.065449,1.002996 0.0784,0.567197 1.296271,0.655152 0.824872,1.106749 0.257102,-0.01855 1.508264,1.059496 1.1433,0.378811 0.142572,0.03937 0.556605,0.563046 0.812558,0.763071 0.738923,0.64186 1.805971,0.524029 2.64969,0.846819 -2.578475,0.160133 -5.063682,-1.033812 -6.893336,-2.802612 -2.691758,-2.488579 -4.353753,-6.169463 -4.144392,-9.871596 -0.06461,-0.898918 0.119607,-1.812677 -0.06367,-2.699288 0.346644,-1.003948 0.659569,-2.420254 1.254477,-3.112744 0.689363,-0.705556 0.835875,-1.804708 1.593898,-2.490176 0.798356,-0.876918 1.399176,-1.314495 2.179247,-1.762811 0.99999,-0.642561 2.1013,-1.11358 3.203896,-1.540177 -0.208753,0.35608 1.066328,-0.189927 1.185756,-0.06917 v 3e-6 z m -8.901736,5.06685 c 0.680852,0.004 -0.537721,1.204277 -0.0097,0.207532 l 0.0097,-0.20753 z m -0.429605,1.850356 c -0.04408,1.17055 -0.526171,1.036161 -2.1e-5,0 z m 14.349303,2.732296 c 0.329749,0.253986 -0.133008,0.995686 -0.09021,0.121066 z m 4.450882,1.227806 c -0.114571,0.836385 -0.367792,1.696106 -0.773321,2.421024 0.392652,-0.758433 0.541856,-1.613432 0.773321,-2.421024 z m -4.674288,0.276685 c 0.0885,0.590837 -0.883073,1.542625 -0.653011,0.570687 0.579257,-0.769454 0.06154,-0.01006 -0.01719,0.328552 0.424243,-0.08738 0.512981,-0.58648 0.670203,-0.899239 z m -1.649719,1.556375 c -0.201418,0.783936 -1.817267,-0.09567 -0.665482,0.06917 0.223585,0.0036 0.448863,-0.009 0.665482,-0.06918 v 3e-6 z m -5.103894,0.05188 c 0.244559,0.305157 0.691138,1.396124 0.174515,0.465841 -0.07518,-0.14684 -0.167588,-0.296081 -0.174515,-0.465841 z m -0.326527,0.57067 c 0.265613,0.408641 0.56521,0.923023 0.773322,1.331564 -0.27527,-0.375951 -0.958564,-0.807932 -0.773322,-1.331564 z"
         inkscape:connector-curvature="0" />
      <path
         style="display:inline;overflow:visible;visibility:visible;opacity:0.4;fill:url(#linearGradient3834);fill-opacity:1;fill-rule:nonzero;stroke:none;stroke-width:1.0588305;marker:none;enable-background:accumulate"
         id="rect3326"
         d="m 21.913044,5.0236605 c 1.391304,0 2.782609,0 4.173913,0 0,5.0139065 0,10.0278125 0,15.0417195 -0.410847,0 -0.821695,0 -1.232543,0 -0.420652,0 -0.841304,0 -1.261956,0 -0.338639,0 -0.677277,0 -1.015915,0 -0.221166,0 -0.442333,0 -0.663499,0 0,-5.013907 0,-10.027813 0,-15.0417195 z"
         inkscape:connector-curvature="0" />
    </g>
  </g>
</svg>
